<svg width="48" height="48" viewBox="0 0 48 48" fill="none" xmlns="http://www.w3.org/2000/svg">
  <circle cx="24" cy="24" r="22" fill="#1E90FF" stroke="#FFFFFF" stroke-width="2"/>
  <path d="M24 8C16.27 8 10 14.27 10 22C10 29.73 16.27 36 24 36C31.73 36 38 29.73 38 22C38 14.27 31.73 8 24 8ZM24 32C18.48 32 14 27.52 14 22C14 16.48 18.48 12 24 12C29.52 12 34 16.48 34 22C34 27.52 29.52 32 24 32Z" fill="#FFFFFF"/>
  <path d="M24 16C20.69 16 18 18.69 18 22C18 25.31 20.69 28 24 28C27.31 28 30 25.31 30 22C30 18.69 27.31 16 24 16Z" fill="#1E90FF"/>
  <text x="24" y="26" text-anchor="middle" fill="#FFFFFF" font-family="Arial, sans-serif" font-size="8" font-weight="bold">ISRO</text>
</svg>